<svg width="16" height="16" viewBox="0 0 16 16" fill="none" xmlns="http://www.w3.org/2000/svg">
<g id="Frame">
<path id="Vector" d="M13.2626 12.5868C14.3719 11.3171 14.9779 9.70839 14.9779 8.0064C14.9779 6.14383 14.2525 4.39269 12.9355 3.07564C11.6387 1.77882 9.92092 1.05622 8.09041 1.0343C8.06034 1.02493 7.92963 1.02504 7.89936 1.03454C6.0762 1.06137 4.36612 1.78346 3.07394 3.07564C1.77908 4.37052 1.05669 6.08504 1.0327 7.91247C1.026 7.93824 1.02588 8.04687 1.03237 8.07226C1.04928 9.9102 1.77244 11.6357 3.07394 12.9372C4.391 14.2542 6.14212 14.9796 8.00471 14.9796C9.86729 14.9796 11.6184 14.2542 12.9355 12.9372C13.0314 12.8412 13.1238 12.7427 13.2134 12.6423C13.2214 12.6352 13.2291 12.6278 13.2364 12.6198C13.2461 12.6093 13.2546 12.5982 13.2626 12.5868ZM1.67883 8.3129H4.60854C4.62919 9.33913 4.75313 10.3014 4.96019 11.1584C3.99628 11.4191 3.38489 11.758 3.06836 11.9694C2.2548 10.9581 1.74491 9.6928 1.67883 8.3129ZM3.06061 4.05297C3.37452 4.2648 3.98627 4.60706 4.95656 4.86954C4.75346 5.71529 4.63113 6.66295 4.609 7.67317H1.68006C1.75116 6.30802 2.2568 5.05616 3.06061 4.05297ZM14.3294 7.67316H11.4004C11.3783 6.6633 11.256 5.71596 11.0531 4.87043C12.0211 4.6096 12.6349 4.26974 12.9526 4.05761C13.7542 5.06003 14.2584 6.31013 14.3294 7.67316ZM10.7606 7.67316H8.31508V5.23505C9.13085 5.21794 9.83232 5.13421 10.4287 5.01578C10.625 5.83041 10.7388 6.73248 10.7606 7.67316ZM8.31508 4.59528V1.7172C8.89072 1.87968 9.45226 2.48604 9.89206 3.43619C10.0297 3.73362 10.1521 4.0556 10.2587 4.39746C9.7114 4.50328 9.06655 4.57882 8.31508 4.59528ZM7.67534 1.72274V4.5947C6.93307 4.5771 6.29442 4.50093 5.75158 4.39466C5.85794 4.05384 5.98007 3.73279 6.11735 3.43616C6.55234 2.49648 7.10636 1.89309 7.67534 1.72274ZM7.67534 5.23473V7.67316H5.24885C5.2706 6.73232 5.38447 5.8301 5.58079 5.01536C6.17197 5.1331 6.86696 5.21671 7.67534 5.23473ZM5.24829 8.3129H7.67534V10.7921C6.86894 10.8107 6.17503 10.8946 5.58437 11.0124C5.38398 10.1861 5.26862 9.26915 5.24829 8.3129ZM7.67534 11.4321V14.2901C7.10635 14.1197 6.55234 13.5163 6.11737 12.5766C5.98175 12.2836 5.86097 11.9667 5.75553 11.6305C6.29678 11.5254 6.93392 11.45 7.67534 11.4321ZM8.31508 14.2956V11.4311C9.06358 11.4471 9.70732 11.5227 10.2544 11.6289C10.1488 11.9657 10.0279 12.2831 9.89206 12.5766C9.45226 13.5268 8.89072 14.1331 8.31508 14.2956ZM8.31508 10.7913V8.3129H10.7611C10.7408 9.26753 10.6258 10.183 10.426 11.0083C9.8305 10.8906 9.12995 10.8077 8.31508 10.7913ZM11.4009 8.3129H14.3306C14.2646 9.69006 13.7567 10.9531 12.9459 11.9635C12.6261 11.7499 12.0141 11.4119 11.0505 11.153C11.2568 10.2974 11.3803 9.33699 11.4009 8.3129ZM12.5237 3.57383C12.2373 3.75462 11.7064 4.03251 10.8853 4.25341C10.5838 3.26816 10.1648 2.45647 9.66557 1.8944C10.7656 2.19364 11.7474 2.78249 12.5237 3.57383ZM6.34384 1.8944C5.84531 2.45566 5.4268 3.26579 5.12542 4.24913C4.30661 4.02661 3.77588 3.74758 3.49133 3.56807C4.26678 2.77963 5.24649 2.19292 6.34384 1.8944ZM3.49868 12.4523C3.78437 12.272 4.31272 11.9955 5.12887 11.7751C5.42999 12.7533 5.84725 13.5593 6.34384 14.1184C5.24996 13.8208 4.27297 13.2369 3.49868 12.4523ZM9.66557 14.1184C10.1625 13.559 10.5799 12.7524 10.8811 11.7734C11.6933 11.9925 12.2244 12.2676 12.5144 12.4485C11.7395 13.2351 10.7612 13.8204 9.66557 14.1184Z" fill="white"/>
</g>
</svg>
